<svg xmlns="http://www.w3.org/2000/svg" xmlns:xlink="http://www.w3.org/1999/xlink" width="500" zoomAndPan="magnify" viewBox="0 0 375 374.999991" height="500" preserveAspectRatio="xMidYMid meet" version="1.0"><defs><g/><clipPath id="25b61b7942"><path d="M 6 19 L 357 19 L 357 355 L 6 355 Z M 6 19 " clip-rule="nonzero"/></clipPath><clipPath id="ef2dc28277"><path d="M 413.542969 187.800781 L 174.363281 426.980469 L -65.34375 187.273438 L 173.832031 -51.90625 Z M 413.542969 187.800781 " clip-rule="nonzero"/></clipPath><clipPath id="ed7e2a99c1"><path d="M 413.542969 187.800781 L 174.363281 426.980469 L -65.34375 187.273438 L 173.832031 -51.90625 Z M 413.542969 187.800781 " clip-rule="nonzero"/></clipPath></defs><g clip-path="url(#25b61b7942)"><g clip-path="url(#ef2dc28277)"><g clip-path="url(#ed7e2a99c1)"><path fill="#000000" d="M 70.941406 318.90625 C 93.976562 337.195312 121.796875 348.9375 150.941406 352.847656 C 179.53125 356.6875 208.964844 352.941406 235.792969 342.394531 C 262.90625 331.734375 287.085938 314.035156 305.203125 291.195312 C 325.425781 265.703125 337.46875 234.492188 340.769531 202.207031 C 343.433594 202.074219 346.058594 201.175781 348.332031 199.808594 C 353.980469 196.410156 357.640625 189.820312 356.585938 183.199219 C 355.441406 176.027344 348.441406 170.054688 341.21875 169.992188 C 334.609375 169.929688 328.507812 174.605469 325.925781 180.527344 C 323.332031 186.476562 324.804688 192.921875 329.210938 197.570312 C 331.90625 200.140625 335.210938 201.84375 338.945312 202.171875 C 339.007812 202.179688 339.070312 202.179688 339.132812 202.183594 C 335.691406 235.863281 322.535156 268.265625 300.644531 294.195312 C 281.6875 316.652344 256.574219 333.539062 228.875 343.226562 C 201.34375 352.855469 171.378906 355.214844 142.703125 349.882812 C 113.5 344.449219 86.1875 330.824219 64.105469 310.996094 C 42.488281 291.585938 26.195312 266.476562 16.976562 238.949219 C 7.550781 210.804688 5.859375 180.3125 12.320312 151.328125 C 18.988281 121.421875 34.347656 93.792969 55.703125 71.882812 C 76.988281 50.046875 104.191406 34.207031 133.722656 26.605469 C 162.929688 19.089844 193.910156 20.117188 222.664062 29.070312 C 250.550781 37.75 275.953125 53.886719 295.855469 75.230469 C 310.84375 91.300781 322.527344 110.394531 330.003906 131.054688 C 330.359375 132.042969 331.945312 131.632812 331.585938 130.640625 C 321.609375 103.058594 304.289062 78.539062 281.855469 59.675781 C 259.714844 41.058594 232.832031 28.234375 204.410156 22.808594 C 174.835938 17.164062 143.988281 19.929688 115.824219 30.554688 C 87.671875 41.171875 62.640625 59.503906 43.742188 82.890625 C 24.628906 106.546875 12.132812 135.296875 8.160156 165.460938 C 4.371094 194.238281 8.542969 223.707031 19.546875 250.515625 C 30.5 277.195312 48.355469 300.972656 70.941406 318.90625 Z M 330.367188 196.414062 C 327.828125 193.730469 326.226562 190.367188 326.230469 186.636719 C 326.234375 183.382812 327.535156 180.1875 329.53125 177.652344 C 333.679688 172.386719 340.925781 169.90625 347.089844 173.105469 C 353.667969 176.523438 357.003906 184.308594 353.917969 191.191406 C 351.265625 197.097656 344.726562 201.414062 338.160156 200.445312 C 335.175781 200.003906 332.527344 198.472656 330.367188 196.414062 Z M 330.367188 196.414062 " fill-opacity="1" fill-rule="nonzero"/></g></g></g><g fill="#000000" fill-opacity="1"><g transform="translate(171.944759, 210.743393)"><g><path d="M 66.816406 -49.128906 L 51.175781 -1.882812 L 35.535156 -49.128906 L 34.0625 -49.128906 L 18.421875 -1.882812 L 2.785156 -49.128906 L 1.308594 -49.128906 L 17.6875 0 L 19.160156 0 L 34.800781 -46.917969 L 50.4375 0 L 51.914062 0 L 68.289062 -49.128906 Z M 66.816406 -49.128906 "/></g></g></g><g fill="#000000" fill-opacity="1"><g transform="translate(245.464764, 210.743393)"><g><path d="M 30.625 0.65625 C 44.625 0.65625 55.84375 -10.644531 55.84375 -24.5625 C 55.84375 -38.484375 44.625 -49.785156 30.625 -49.785156 C 16.703125 -49.785156 5.402344 -38.484375 5.402344 -24.5625 C 5.402344 -10.644531 16.703125 0.65625 30.625 0.65625 Z M 30.625 -0.65625 C 17.441406 -0.65625 6.714844 -11.300781 6.714844 -24.5625 C 6.714844 -37.828125 17.441406 -48.472656 30.625 -48.472656 C 43.886719 -48.472656 54.53125 -37.828125 54.53125 -24.5625 C 54.53125 -11.300781 43.886719 -0.65625 30.625 -0.65625 Z M 30.625 -0.65625 "/></g></g></g><g fill="#000000" fill-opacity="1"><g transform="translate(310.715876, 210.743393)"><g><path d="M 30.625 0.65625 C 44.625 0.65625 55.84375 -10.644531 55.84375 -24.5625 C 55.84375 -38.484375 44.625 -49.785156 30.625 -49.785156 C 16.703125 -49.785156 5.402344 -38.484375 5.402344 -24.5625 C 5.402344 -10.644531 16.703125 0.65625 30.625 0.65625 Z M 30.625 -0.65625 C 17.441406 -0.65625 6.714844 -11.300781 6.714844 -24.5625 C 6.714844 -37.828125 17.441406 -48.472656 30.625 -48.472656 C 43.886719 -48.472656 54.53125 -37.828125 54.53125 -24.5625 C 54.53125 -11.300781 43.886719 -0.65625 30.625 -0.65625 Z M 30.625 -0.65625 "/></g></g></g></svg>